<?xml version="1.0" encoding="UTF-8"?>
<svg xmlns="http://www.w3.org/2000/svg" viewBox="0 0 480 480" width="480px" height="480px">
<g id="surface1472340">
<path style=" stroke:none;fill-rule:nonzero;fill:rgb(6.666667%,6.666667%,6.666667%);fill-opacity:1;" d="M 48 112 C 42.230469 111.917969 36.863281 114.949219 33.953125 119.933594 C 31.042969 124.917969 31.042969 131.082031 33.953125 136.066406 C 36.863281 141.050781 42.230469 144.082031 48 144 L 432 144 C 437.769531 144.082031 443.136719 141.050781 446.046875 136.066406 C 448.957031 131.082031 448.957031 124.917969 446.046875 119.933594 C 443.136719 114.949219 437.769531 111.917969 432 112 Z M 48 224 C 42.230469 223.917969 36.863281 226.949219 33.953125 231.933594 C 31.042969 236.917969 31.042969 243.082031 33.953125 248.066406 C 36.863281 253.050781 42.230469 256.082031 48 256 L 432 256 C 437.769531 256.082031 443.136719 253.050781 446.046875 248.066406 C 448.957031 243.082031 448.957031 236.917969 446.046875 231.933594 C 443.136719 226.949219 437.769531 223.917969 432 224 Z M 48 336 C 42.230469 335.917969 36.863281 338.949219 33.953125 343.933594 C 31.042969 348.917969 31.042969 355.082031 33.953125 360.066406 C 36.863281 365.050781 42.230469 368.082031 48 368 L 432 368 C 437.769531 368.082031 443.136719 365.050781 446.046875 360.066406 C 448.957031 355.082031 448.957031 348.917969 446.046875 343.933594 C 443.136719 338.949219 437.769531 335.917969 432 336 Z M 48 336 "/>
</g>
</svg>
